<?xml version="1.0" encoding="UTF-8"?>
<svg id="Layer_2" data-name="Layer 2" xmlns="http://www.w3.org/2000/svg" viewBox="0 0 287.04 138.1">
  <defs>
    <style>
      .cls-1 {
        fill: red;
      }
    </style>
  </defs>
  <g id="Layer_1-2" data-name="Layer 1">
    <g>
      <path class="cls-1" d="M0,2.97v59.68c0,3.15,1.25,6.17,3.48,8.39l63.22,63.22c1.87,1.87,5.06.55,5.06-2.1v-64.6L5.06.88C3.2-.99,0,.33,0,2.97Z"/>
      <path class="cls-1" d="M143.52,67.57L76.82.87c-1.87-1.87-5.06-.55-5.06,2.1v64.6l69.66,69.66c1.16,1.16,3.04,1.16,4.2,0l69.66-69.66V2.97c0-2.64-3.2-3.97-5.06-2.1l-66.69,66.69Z"/>
      <path class="cls-1" d="M287.04,2.97v59.68c0,3.15-1.25,6.17-3.48,8.39l-63.22,63.22c-1.87,1.87-5.06.55-5.06-2.1v-64.6S281.97.88,281.97.88c1.87-1.87,5.06-.55,5.06,2.1Z"/>
    </g>
  </g>
</svg>