<?xml version="1.0" encoding="UTF-8"?>
<svg id="Layer_2" data-name="Layer 2" xmlns="http://www.w3.org/2000/svg" viewBox="0 0 573.17 72.67">
  <defs>
    <style>
      .cls-1 {
        fill: red;
      }
    </style>
  </defs>
  <g id="Layer_1-2" data-name="Layer 1">
    <g>
      <g>
        <path class="cls-1" d="M176.11,2.14h12.82l20.95,54.98L230.4,2.14h13.68l20.52,54.98,20.95-54.98h12.82l-27.36,68.4h-12.82l-20.95-53.69-20.95,53.69h-12.82L176.11,2.14Z"/>
        <path class="cls-1" d="M295.31,36.34c0-20.78,18.72-36.34,43.6-36.34s43.6,15.56,43.6,36.34-18.72,36.34-43.6,36.34-43.6-15.56-43.6-36.34ZM338.92,61.3c18.04,0,31.55-10.69,31.55-24.97s-13.51-24.97-31.55-24.97-31.55,10.69-31.55,24.97,13.51,24.97,31.55,24.97Z"/>
        <path class="cls-1" d="M386.5,36.34c0-20.78,18.72-36.34,43.6-36.34s43.6,15.56,43.6,36.34-18.72,36.34-43.6,36.34-43.6-15.56-43.6-36.34ZM430.1,61.3c18.04,0,31.55-10.69,31.55-24.97s-13.51-24.97-31.55-24.97-31.55,10.69-31.55,24.97,13.51,24.97,31.55,24.97Z"/>
        <path class="cls-1" d="M481.69,2.14h19.67l26.08,54.72,26.08-54.72h19.67v68.4h-11.97V12.83l-27.36,57.71h-12.82l-27.36-57.71v57.71h-11.97V2.14Z"/>
      </g>
      <g>
        <path class="cls-1" d="M0,3.63v30.22c0,1.59.63,3.12,1.76,4.25l32.01,32.01c.95.95,2.56.28,2.56-1.06v-32.71L2.56,2.57c-.95-.95-2.56-.28-2.56,1.06Z"/>
        <path class="cls-1" d="M72.67,36.34L38.9,2.57c-.95-.95-2.56-.28-2.56,1.06v32.71l35.28,35.28c.59.59,1.54.59,2.12,0l35.28-35.28V3.63c0-1.34-1.62-2.01-2.56-1.06l-33.77,33.77Z"/>
        <path class="cls-1" d="M145.35,3.63v30.22c0,1.59-.63,3.12-1.76,4.25l-32.01,32.01c-.95.95-2.56.28-2.56-1.06v-32.71S142.79,2.57,142.79,2.57c.95-.95,2.56-.28,2.56,1.06Z"/>
      </g>
    </g>
  </g>
</svg>